# xmcd CD database file
#
# Track frame offsets:
#	150
#	22297
#	34157
#	51100
#	70594
#	92642
#	114992
#	135912
#	157957
#	170111
#
# Disc length: 2588 seconds
#
# Revision: 0
# Processed by: cddbd v1.5.2PL0 Copyright (c) Steve Scherf et al.
# Submitted via: CDex 1.70beta2
#
DISCID=7d0a1a0a
DTITLE=Pat Martino and Gil Goldstein - We´ll be together again
DYEAR=1976
DGENRE=Jazz
TTITLE0=Olee
TTITLE1=Variation and 
TTITLE2=Song
TTITLE3=Open Road
TTITLE4=Lament
TTITLE5=We´ll be together again
TTITLE6=You don´t know what love is
TTITLE7=Dreamsville
TTITLE8=Send in the clowns
TTITLE9=Willow wees for me
EXTD=YEAR: 1976
EXTT0=
EXTT1=
EXTT2=
EXTT3=
EXTT4=
EXTT5=
EXTT6=
EXTT7=
EXTT8=
EXTT9=
PLAYORDER=
